<svg xmlns="http://www.w3.org/2000/svg" viewBox="0 0 64 64">
  <defs>
    <linearGradient id="g" x1="0" y1="0" x2="1" y2="1">
      <stop offset="0%" stop-color="#ffde8a"/>
      <stop offset="55%" stop-color="#ff8b3d"/>
      <stop offset="100%" stop-color="#ff4f4f"/>
    </linearGradient>
  </defs>
  <rect width="64" height="64" rx="14" fill="#111827"/>
  <path fill="url(#g)" d="M35.4 8.8c1.8 6.6-2.2 10.8-5.7 14.3-3.1 3.1-5.9 5.9-5.9 10.1 0 3.9 3.2 7.1 7.1 7.1 5.9 0 10.8-4.8 10.8-10.8 0-4.8-2.1-8.4-6.3-12.5 4.9 1.1 13.2 7.2 13.2 18 0 11.4-8.9 20-20.2 20-10.5 0-18.8-7.8-18.8-18.2 0-8 4.6-13.7 9.1-18.2 4.9-4.9 9.7-9.6 9-18.6 2.8 1.9 5.8 4.9 7.7 8.8z"/>
</svg>
